<?xml version="1.0" encoding="UTF-8" standalone="no"?>
<svg
   width="75.337pt"
   height="23.412pt"
   viewBox="0 0 75.337 23.412"
   version="1.1"
   id="svg15"
   sodipodi:docname="ix-1.pdf"
   xmlns:inkscape="http://www.inkscape.org/namespaces/inkscape"
   xmlns:sodipodi="http://sodipodi.sourceforge.net/DTD/sodipodi-0.dtd"
   xmlns:xlink="http://www.w3.org/1999/xlink"
   xmlns="http://www.w3.org/2000/svg"
   xmlns:svg="http://www.w3.org/2000/svg">
  <sodipodi:namedview
     id="namedview15"
     pagecolor="#ffffff"
     bordercolor="#000000"
     borderopacity="0.25"
     inkscape:showpageshadow="2"
     inkscape:pageopacity="0.0"
     inkscape:pagecheckerboard="0"
     inkscape:deskcolor="#d1d1d1"
     inkscape:document-units="pt" />
  <defs
     id="defs6">
    <g
       id="g3">
      <g
         id="glyph-0-0">
        <path
           d="M 3.578125 -1.609375 C 3.578125 -2.546875 2.921875 -3.34375 2.0625 -3.34375 C 1.6875 -3.34375 1.34375 -3.21875 1.046875 -2.9375 L 1.046875 -4.5 C 1.21875 -4.453125 1.46875 -4.390625 1.734375 -4.390625 C 2.703125 -4.390625 3.265625 -5.109375 3.265625 -5.21875 C 3.265625 -5.265625 3.25 -5.3125 3.1875 -5.3125 C 3.171875 -5.3125 3.15625 -5.3125 3.125 -5.28125 C 2.96875 -5.21875 2.578125 -5.046875 2.046875 -5.046875 C 1.71875 -5.046875 1.359375 -5.109375 0.984375 -5.28125 C 0.921875 -5.296875 0.90625 -5.296875 0.890625 -5.296875 C 0.8125 -5.296875 0.8125 -5.234375 0.8125 -5.109375 L 0.8125 -2.75 C 0.8125 -2.609375 0.8125 -2.546875 0.921875 -2.546875 C 0.96875 -2.546875 0.984375 -2.5625 1.015625 -2.609375 C 1.109375 -2.734375 1.40625 -3.171875 2.046875 -3.171875 C 2.46875 -3.171875 2.65625 -2.8125 2.71875 -2.65625 C 2.859375 -2.359375 2.875 -2.0625 2.875 -1.65625 C 2.875 -1.375 2.875 -0.90625 2.671875 -0.5625 C 2.484375 -0.25 2.1875 -0.046875 1.828125 -0.046875 C 1.25 -0.046875 0.78125 -0.46875 0.65625 -0.9375 C 0.671875 -0.9375 0.703125 -0.921875 0.78125 -0.921875 C 1.046875 -0.921875 1.1875 -1.125 1.1875 -1.3125 C 1.1875 -1.5 1.046875 -1.703125 0.78125 -1.703125 C 0.671875 -1.703125 0.390625 -1.65625 0.390625 -1.28125 C 0.390625 -0.59375 0.953125 0.171875 1.84375 0.171875 C 2.765625 0.171875 3.578125 -0.59375 3.578125 -1.609375 Z M 3.578125 -1.609375 "
           id="path1" />
      </g>
      <g
         id="glyph-0-1">
        <path
           d="M 2.34375 -5.09375 C 2.34375 -5.296875 2.34375 -5.3125 2.15625 -5.3125 C 1.671875 -4.796875 0.96875 -4.796875 0.703125 -4.796875 L 0.703125 -4.546875 C 0.875 -4.546875 1.34375 -4.546875 1.75 -4.75 L 1.75 -0.625 C 1.75 -0.34375 1.734375 -0.25 1.015625 -0.25 L 0.75 -0.25 L 0.75 0 C 1.03125 -0.03125 1.734375 -0.03125 2.046875 -0.03125 C 2.359375 -0.03125 3.0625 -0.03125 3.34375 0 L 3.34375 -0.25 L 3.078125 -0.25 C 2.359375 -0.25 2.34375 -0.328125 2.34375 -0.625 Z M 2.34375 -5.09375 "
           id="path2" />
      </g>
      <g
         id="glyph-0-2">
        <path
           d="M 1.015625 -0.609375 L 1.859375 -1.4375 C 3.09375 -2.53125 3.578125 -2.96875 3.578125 -3.765625 C 3.578125 -4.671875 2.859375 -5.3125 1.890625 -5.3125 C 0.984375 -5.3125 0.390625 -4.578125 0.390625 -3.859375 C 0.390625 -3.421875 0.796875 -3.421875 0.828125 -3.421875 C 0.953125 -3.421875 1.234375 -3.515625 1.234375 -3.84375 C 1.234375 -4.046875 1.09375 -4.25 0.8125 -4.25 C 0.75 -4.25 0.734375 -4.25 0.703125 -4.25 C 0.890625 -4.765625 1.328125 -5.0625 1.78125 -5.0625 C 2.515625 -5.0625 2.859375 -4.421875 2.859375 -3.765625 C 2.859375 -3.125 2.453125 -2.5 2.015625 -2 L 0.484375 -0.296875 C 0.390625 -0.203125 0.390625 -0.1875 0.390625 0 L 3.359375 0 L 3.578125 -1.390625 L 3.375 -1.390625 C 3.34375 -1.140625 3.28125 -0.796875 3.203125 -0.671875 C 3.140625 -0.609375 2.625 -0.609375 2.453125 -0.609375 Z M 1.015625 -0.609375 "
           id="path3" />
      </g>
    </g>
    <clipPath
       id="clip-0">
      <path
         clip-rule="nonzero"
         d="M 7 10 L 8 10 L 8 23.410156 L 7 23.410156 Z M 7 10 "
         id="path4" />
    </clipPath>
    <clipPath
       id="clip-1">
      <path
         clip-rule="nonzero"
         d="M 30 7 L 31 7 L 31 23.410156 L 30 23.410156 Z M 30 7 "
         id="path5" />
    </clipPath>
    <clipPath
       id="clip-2">
      <path
         clip-rule="nonzero"
         d="M 52 7 L 54 7 L 54 23.410156 L 52 23.410156 Z M 52 7 "
         id="path6" />
    </clipPath>
  </defs>
  <path
     fill="none"
     stroke-width="0.79701"
     stroke-linecap="butt"
     stroke-linejoin="miter"
     stroke="rgb(0%, 0%, 0%)"
     stroke-opacity="1"
     stroke-miterlimit="10"
     d="M -5.386375 0.00146875 L 63.176125 0.00146875 "
     transform="matrix(1, 0, 0, -1, 7.777, 21.021)"
     id="path7" />
  <g
     fill="rgb(0%, 0%, 100%)"
     fill-opacity="1"
     id="g7">
    <use
       xlink:href="#glyph-0-0"
       x="67.048"
       y="19.108"
       id="use7" />
  </g>
  <g
     clip-path="url(#clip-0)"
     id="g8">
    <path
       fill="none"
       stroke-width="0.3985"
       stroke-linecap="butt"
       stroke-linejoin="miter"
       stroke="rgb(0%, 0%, 0%)"
       stroke-opacity="1"
       stroke-miterlimit="10"
       d="M 0.00034375 -2.990719 L 0.00034375 10.544438 "
       transform="matrix(1, 0, 0, -1, 7.777, 21.021)"
       id="path8" />
  </g>
  <g
     fill="rgb(0%, 0%, 100%)"
     fill-opacity="1"
     id="g9">
    <use
       xlink:href="#glyph-0-1"
       x="9.53"
       y="18.317"
       id="use8" />
  </g>
  <g
     clip-path="url(#clip-1)"
     id="g10">
    <path
       fill="none"
       stroke-width="0.3985"
       stroke-linecap="butt"
       stroke-linejoin="miter"
       stroke="rgb(0%, 0%, 0%)"
       stroke-opacity="1"
       stroke-miterlimit="10"
       d="M 22.621437 -2.990719 L 22.621437 13.532719 "
       transform="matrix(1, 0, 0, -1, 7.777, 21.021)"
       id="path9" />
  </g>
  <g
     fill="rgb(0%, 0%, 100%)"
     fill-opacity="1"
     id="g11">
    <use
       xlink:href="#glyph-0-2"
       x="32.151"
       y="18.317"
       id="use10" />
  </g>
  <path
     fill="none"
     stroke-width="0.3985"
     stroke-linecap="butt"
     stroke-linejoin="miter"
     stroke="rgb(0%, 0%, 0%)"
     stroke-opacity="1"
     stroke-miterlimit="10"
     d="M 25.609719 10.544438 L 12.926125 10.544438 "
     transform="matrix(1, 0, 0, -1, 7.777, 21.021)"
     id="path11" />
  <g
     fill="rgb(0%, 0%, 100%)"
     fill-opacity="1"
     id="g12">
    <use
       xlink:href="#glyph-0-1"
       x="23.558"
       y="8.723"
       id="use11" />
  </g>
  <g
     clip-path="url(#clip-2)"
     id="g13">
    <path
       fill="none"
       stroke-width="0.3985"
       stroke-linecap="butt"
       stroke-linejoin="miter"
       stroke="rgb(0%, 0%, 0%)"
       stroke-opacity="1"
       stroke-miterlimit="10"
       d="M 45.242531 -2.990719 L 45.242531 13.532719 "
       transform="matrix(1, 0, 0, -1, 7.777, 21.021)"
       id="path12" />
  </g>
  <g
     fill="rgb(0%, 0%, 100%)"
     fill-opacity="1"
     id="g14">
    <use
       xlink:href="#glyph-0-2"
       x="54.772"
       y="18.317"
       id="use13" />
  </g>
  <path
     fill="none"
     stroke-width="0.3985"
     stroke-linecap="butt"
     stroke-linejoin="miter"
     stroke="rgb(0%, 0%, 0%)"
     stroke-opacity="1"
     stroke-miterlimit="10"
     d="M 48.230812 10.544438 L 35.547219 10.544438 "
     transform="matrix(1, 0, 0, -1, 7.777, 21.021)"
     id="path14" />
  <g
     fill="rgb(0%, 0%, 100%)"
     fill-opacity="1"
     id="g15">
    <use
       xlink:href="#glyph-0-1"
       x="46.178"
       y="8.723"
       id="use14" />
  </g>
</svg>
