<?xml version="1.0" encoding="UTF-8" standalone="no"?>
<svg
   width="144.982pt"
   height="53.251pt"
   viewBox="0 0 144.982 53.251"
   version="1.1"
   id="svg10"
   sodipodi:docname="i-0-ii-0.pdf"
   xmlns:inkscape="http://www.inkscape.org/namespaces/inkscape"
   xmlns:sodipodi="http://sodipodi.sourceforge.net/DTD/sodipodi-0.dtd"
   xmlns:xlink="http://www.w3.org/1999/xlink"
   xmlns="http://www.w3.org/2000/svg"
   xmlns:svg="http://www.w3.org/2000/svg">
  <sodipodi:namedview
     id="namedview10"
     pagecolor="#ffffff"
     bordercolor="#000000"
     borderopacity="0.25"
     inkscape:showpageshadow="2"
     inkscape:pageopacity="0.0"
     inkscape:pagecheckerboard="0"
     inkscape:deskcolor="#d1d1d1"
     inkscape:document-units="pt" />
  <defs
     id="defs5">
    <g
       id="g2">
      <g
         id="glyph-0-0">
        <path
           d="M 4.828125 -4.03125 C 4.828125 -4.203125 4.71875 -4.515625 4.328125 -4.515625 C 4.125 -4.515625 3.6875 -4.453125 3.265625 -4.046875 C 2.84375 -4.375 2.4375 -4.40625 2.21875 -4.40625 C 1.28125 -4.40625 0.59375 -3.71875 0.59375 -2.953125 C 0.59375 -2.515625 0.8125 -2.140625 1.0625 -1.921875 C 0.9375 -1.78125 0.75 -1.453125 0.75 -1.09375 C 0.75 -0.78125 0.890625 -0.40625 1.203125 -0.203125 C 0.59375 -0.046875 0.28125 0.390625 0.28125 0.78125 C 0.28125 1.5 1.265625 2.046875 2.484375 2.046875 C 3.65625 2.046875 4.6875 1.546875 4.6875 0.765625 C 4.6875 0.421875 4.5625 -0.09375 4.046875 -0.375 C 3.515625 -0.640625 2.9375 -0.640625 2.328125 -0.640625 C 2.078125 -0.640625 1.65625 -0.640625 1.578125 -0.65625 C 1.265625 -0.703125 1.0625 -1 1.0625 -1.328125 C 1.0625 -1.359375 1.0625 -1.59375 1.21875 -1.796875 C 1.609375 -1.515625 2.03125 -1.484375 2.21875 -1.484375 C 3.140625 -1.484375 3.828125 -2.171875 3.828125 -2.9375 C 3.828125 -3.3125 3.671875 -3.671875 3.421875 -3.90625 C 3.78125 -4.25 4.140625 -4.296875 4.3125 -4.296875 C 4.3125 -4.296875 4.390625 -4.296875 4.421875 -4.28125 C 4.3125 -4.25 4.25 -4.140625 4.25 -4.015625 C 4.25 -3.84375 4.390625 -3.734375 4.546875 -3.734375 C 4.640625 -3.734375 4.828125 -3.796875 4.828125 -4.03125 Z M 3.078125 -2.953125 C 3.078125 -2.6875 3.078125 -2.359375 2.921875 -2.109375 C 2.84375 -2 2.609375 -1.71875 2.21875 -1.71875 C 1.34375 -1.71875 1.34375 -2.71875 1.34375 -2.9375 C 1.34375 -3.203125 1.359375 -3.53125 1.5 -3.78125 C 1.578125 -3.890625 1.8125 -4.171875 2.21875 -4.171875 C 3.078125 -4.171875 3.078125 -3.1875 3.078125 -2.953125 Z M 4.171875 0.78125 C 4.171875 1.328125 3.46875 1.828125 2.5 1.828125 C 1.484375 1.828125 0.796875 1.3125 0.796875 0.78125 C 0.796875 0.328125 1.171875 -0.046875 1.609375 -0.0625 L 2.203125 -0.0625 C 3.0625 -0.0625 4.171875 -0.0625 4.171875 0.78125 Z M 4.171875 0.78125 "
           id="path1" />
      </g>
      <g
         id="glyph-0-1">
        <path
           d="M 4.171875 0 L 4.171875 -0.3125 L 3.859375 -0.3125 C 2.953125 -0.3125 2.9375 -0.421875 2.9375 -0.78125 L 2.9375 -6.375 C 2.9375 -6.625 2.9375 -6.640625 2.703125 -6.640625 C 2.078125 -6 1.203125 -6 0.890625 -6 L 0.890625 -5.6875 C 1.09375 -5.6875 1.671875 -5.6875 2.1875 -5.953125 L 2.1875 -0.78125 C 2.1875 -0.421875 2.15625 -0.3125 1.265625 -0.3125 L 0.953125 -0.3125 L 0.953125 0 C 1.296875 -0.03125 2.15625 -0.03125 2.5625 -0.03125 C 2.953125 -0.03125 3.828125 -0.03125 4.171875 0 Z M 4.171875 0 "
           id="path2" />
      </g>
    </g>
    <clipPath
       id="clip-0">
      <path
         clip-rule="nonzero"
         d="M 0 17 L 37 17 L 37 53.25 L 0 53.25 Z M 0 17 "
         id="path3" />
    </clipPath>
    <clipPath
       id="clip-1">
      <path
         clip-rule="nonzero"
         d="M 24 17 L 65 17 L 65 53.25 L 24 53.25 Z M 24 17 "
         id="path4" />
    </clipPath>
    <clipPath
       id="clip-2">
      <path
         clip-rule="nonzero"
         d="M 53 17 L 144.980469 17 L 144.980469 29 L 53 29 Z M 53 17 "
         id="path5" />
    </clipPath>
  </defs>
  <g
     clip-path="url(#clip-0)"
     id="g6">
    <path
       fill="none"
       stroke-width="0.3985"
       stroke-linecap="butt"
       stroke-linejoin="miter"
       stroke="rgb(0%, 0%, 0%)"
       stroke-opacity="1"
       stroke-miterlimit="10"
       d="M 0.0010625 198.429312 C 0.0010625 214.081656 -12.690344 226.773062 -28.346594 226.773062 "
       transform="matrix(1, 0, 0, -1, 30.538, 249.484)"
       id="path6" />
  </g>
  <path
     fill="none"
     stroke-width="0.3985"
     stroke-linecap="butt"
     stroke-linejoin="miter"
     stroke="rgb(0%, 0%, 0%)"
     stroke-opacity="1"
     stroke-miterlimit="10"
     d="M -25.510656 208.347281 L -25.510656 208.347281 "
     transform="matrix(1, 0, 0, -1, 30.538, 249.484)"
     id="path7" />
  <g
     clip-path="url(#clip-1)"
     id="g8">
    <path
       fill="none"
       stroke-width="0.3985"
       stroke-linecap="butt"
       stroke-linejoin="miter"
       stroke="rgb(0%, 0%, 0%)"
       stroke-opacity="1"
       stroke-miterlimit="10"
       d="M 28.348719 226.773062 C 12.692469 226.773062 0.0010625 214.081656 0.0010625 198.429312 "
       transform="matrix(1, 0, 0, -1, 30.538, 249.484)"
       id="path8" />
  </g>
  <g
     clip-path="url(#clip-2)"
     id="g9">
    <path
       fill="none"
       stroke-width="0.3985"
       stroke-linecap="butt"
       stroke-linejoin="miter"
       stroke="rgb(0%, 0%, 0%)"
       stroke-opacity="1"
       stroke-miterlimit="10"
       d="M 28.348719 226.773062 L 112.254969 226.206656 "
       transform="matrix(1, 0, 0, -1, 30.538, 249.484)"
       id="path9" />
  </g>
  <g
     fill="rgb(0%, 0%, 100%)"
     fill-opacity="1"
     id="g10">
    <use
       xlink:href="#glyph-0-0"
       x="93.022"
       y="11.587"
       id="use9" />
    <use
       xlink:href="#glyph-0-1"
       x="98.0033"
       y="11.587"
       id="use10" />
  </g>
</svg>
