<?xml version="1.0" encoding="UTF-8" standalone="no"?>
<!-- Created with Inkscape (http://www.inkscape.org/) -->

<svg
   version="1.1"
   id="svg2"
   width="119.23067"
   height="86.783997"
   viewBox="0 0 119.23067 86.783997"
   sodipodi:docname="iv-ii_1-t.pdf"
   xmlns:inkscape="http://www.inkscape.org/namespaces/inkscape"
   xmlns:sodipodi="http://sodipodi.sourceforge.net/DTD/sodipodi-0.dtd"
   xmlns="http://www.w3.org/2000/svg"
   xmlns:svg="http://www.w3.org/2000/svg">
  <defs
     id="defs6" />
  <sodipodi:namedview
     id="namedview4"
     pagecolor="#ffffff"
     bordercolor="#000000"
     borderopacity="0.25"
     inkscape:showpageshadow="2"
     inkscape:pageopacity="0.0"
     inkscape:pagecheckerboard="0"
     inkscape:deskcolor="#d1d1d1" />
  <g
     id="g8"
     inkscape:groupmode="layer"
     inkscape:label="iv-ii_1-t"
     transform="matrix(1.3333333,0,0,-1.3333333,0,86.784)">
    <g
       id="g10"
       transform="translate(58.885,5.735)">
      <g
         id="g12">
        <g
           id="g14">
          <g
             id="g16" />
          <g
             id="g18" />
          <g
             id="g20" />
          <g
             id="g22" />
          <g
             id="g24">
            <g
               id="g26"
               transform="matrix(0.8,0,0,0.8,-21.484,49.685)">
              <g
                 id="g28">
                <g
                   id="g30"
                   transform="translate(-37.401,-55.42)">
                  <g
                     aria-label="t"
                     transform="matrix(1,0,0,-1,37.401,55.42)"
                     id="text34"
                     style="font-size:9.9626px;font-family:LMMathItalic10;-inkscape-font-specification:LMMathItalic10-Regular">
                    <path
                       d="m 1.8242065,-6.9952239 v 1.5469272 H 3.6678712 V -4.752666 H 1.8242065 v 2.9576468 q 0,0.6664434 0.1799884,0.85616092 0.1848529,0.18971748 0.7442762,0.18971748 H 3.6678712 V 0 H 2.7484711 Q 1.7123218,0 1.3182932,-0.3842995 0.92426463,-0.77346356 0.92426463,-1.7950192 V -4.752666 H 0.26755029 v -0.6956307 h 0.65671434 v -1.5469272 z"
                       id="path122" />
                  </g>
                  <g
                     aria-label="−"
                     transform="matrix(1,0,0,-1,43.213,55.42)"
                     id="text38"
                     style="font-size:9.9626px;font-family:LMMathSymbols10;-inkscape-font-specification:LMMathSymbols10-Regular">
                    <path
                       d="m 1.0556075,-3.5365283 h 6.2363539 v 0.8269736 H 1.0556075 Z"
                       id="path125" />
                  </g>
                  <g
                     aria-label="1"
                     transform="matrix(1,0,0,-1,53.176,55.42)"
                     id="text42"
                     style="font-size:9.9626px;font-family:LMRoman10;-inkscape-font-specification:LMRoman10-Regular">
                    <path
                       d="M 4.1743293,0 V -0.30884059 H 3.8555261 c -0.896634,0 -0.9265218,-0.1095886 -0.9265218,-0.47820479 V -6.3760638 c 0,-0.2391024 0,-0.2590276 -0.2291398,-0.2590276 -0.6176812,0.6376063 -1.4943899,0.6376063 -1.81319312,0.6376063 v 0.3088406 c 0.19925202,0 0.78704542,0 1.30510052,-0.2590276 v 5.16062672 c 0,0.35865359 -0.029888,0.47820479 -0.9265217,0.47820479 H 0.94644698 V 0 C 1.295138,-0.0298878 2.1618841,-0.0298878 2.5603881,-0.0298878 c 0.398504,0 1.2652502,0 1.6139412,0.0298878 z"
                       id="path128" />
                  </g>
                  <g
                     id="g44"
                     transform="translate(37.401,55.42)" />
                </g>
              </g>
              <g
                 id="g46"
                 transform="translate(21.484,-49.685)" />
            </g>
          </g>
          <g
             id="g48">
            <path
               d="m -20.26382,42.5202 c 0,0.55023 -0.44603,0.99628 -0.99628,0.99628 -0.55023,0 -0.99628,-0.44605 -0.99628,-0.99628 0,-0.55023 0.44605,-0.99627 0.99628,-0.99627 0.55025,0 0.99628,0.44604 0.99628,0.99627 z"
               style="fill:#000000;fill-opacity:1;fill-rule:nonzero;stroke:none"
               id="path50" />
          </g>
          <g
             id="g52">
            <path
               d="m -6.09041,42.5202 c 0,0.55023 -0.44604,0.99628 -0.99628,0.99628 -0.55023,0 -0.99627,-0.44605 -0.99627,-0.99628 0,-0.55023 0.44604,-0.99627 0.99627,-0.99627 0.55024,0 0.99628,0.44604 0.99628,0.99627 z"
               style="fill:#000000;fill-opacity:1;fill-rule:nonzero;stroke:none"
               id="path54" />
          </g>
          <g
             id="g56">
            <path
               d="m -13.17711,42.5202 c 0,0.55023 -0.44604,0.99628 -0.99628,0.99628 -0.55024,0 -0.99627,-0.44605 -0.99627,-0.99628 0,-0.55023 0.44603,-0.99627 0.99627,-0.99627 0.55024,0 0.99628,0.44604 0.99628,0.99627 z"
               style="fill:#000000;fill-opacity:1;fill-rule:nonzero;stroke:none"
               id="path58" />
          </g>
          <g
             id="g60" />
          <g
             id="g62" />
          <g
             id="g64" />
          <g
             id="g66" />
          <g
             id="g68" />
          <g
             id="g70" />
          <g
             id="g72" />
          <path
             d="M -56.69362,42.5202 H -28.3468"
             style="fill:none;stroke:#000000;stroke-width:0.3985;stroke-linecap:butt;stroke-linejoin:miter;stroke-miterlimit:10;stroke-dasharray:none;stroke-opacity:1"
             id="path74" />
          <path
             d="M -42.5202,56.69362 V -3.54333"
             style="fill:none;stroke:#000000;stroke-width:0.3985;stroke-linecap:butt;stroke-linejoin:miter;stroke-miterlimit:10;stroke-dasharray:none;stroke-opacity:1"
             id="path76" />
          <path
             d="m -35.4335,14.17339 c 0,1.95695 -1.5864,3.54333 -3.54335,3.54333 -1.95694,0 -3.54334,-1.58638 -3.54334,-3.54333 0,-1.95694 1.5864,-3.54334 3.54334,-3.54334 1.95695,0 3.54335,1.5864 3.54335,3.54334 z"
             style="fill:none;stroke:#000000;stroke-width:0.3985;stroke-linecap:butt;stroke-linejoin:miter;stroke-miterlimit:10;stroke-dasharray:none;stroke-opacity:1"
             id="path78" />
          <g
             id="g80">
            <g
               id="g82"
               transform="matrix(0.8,0,0,0.8,-39.414,32.013)">
              <g
                 id="g84">
                <g
                   id="g86"
                   transform="translate(-19.471,-37.748)">
                  <g
                     aria-label="A"
                     transform="matrix(1,0,0,-1,19.471,37.748)"
                     id="text90"
                     style="font-size:9.9626px;font-family:LMMathItalic10;-inkscape-font-specification:LMMathItalic10-Regular;fill:#0000ff">
                    <path
                       d="M 3.4051855,-6.2947286 2.0722986,-2.6803674 H 4.7429369 Z M 2.8506267,-7.2627741 H 3.9646088 L 6.7325381,0 H 5.7109825 L 5.0494036,-1.8631229 H 1.775561 L 1.1139821,0 H 0.07783281 Z"
                       id="path131" />
                  </g>
                  <g
                     id="g92"
                     transform="translate(19.471,37.748)" />
                </g>
              </g>
              <g
                 id="g94"
                 transform="translate(39.414,-32.013)" />
            </g>
          </g>
          <g
             id="g96" />
          <g
             id="g98" />
          <g
             id="g100" />
          <g
             id="g102" />
          <g
             id="g104" />
          <g
             id="g106" />
          <g
             id="g108" />
          <g
             id="g110" />
          <g
             id="g112" />
          <path
             d="M 0,42.5202 H 28.3468"
             style="fill:none;stroke:#000000;stroke-width:0.3985;stroke-linecap:butt;stroke-linejoin:miter;stroke-miterlimit:10;stroke-dasharray:none;stroke-opacity:1"
             id="path114" />
          <path
             d="M 14.17339,56.69362 V 0"
             style="fill:none;stroke:#000000;stroke-width:0.3985;stroke-linecap:butt;stroke-linejoin:miter;stroke-miterlimit:10;stroke-dasharray:none;stroke-opacity:1"
             id="path116" />
          <path
             d="M 0,28.3468 28.3468,14.17339"
             style="fill:none;stroke:#000000;stroke-width:0.3985;stroke-linecap:butt;stroke-linejoin:miter;stroke-miterlimit:10;stroke-dasharray:none;stroke-opacity:1"
             id="path118" />
          <path
             d="M 0,14.17339 28.3468,28.3468"
             style="fill:none;stroke:#000000;stroke-width:0.3985;stroke-linecap:butt;stroke-linejoin:miter;stroke-miterlimit:10;stroke-dasharray:none;stroke-opacity:1"
             id="path120" />
        </g>
      </g>
    </g>
  </g>
</svg>
