<?xml version="1.0" encoding="UTF-8" standalone="no"?>
<svg
   width="82.917pt"
   height="61.076pt"
   viewBox="0 0 82.917 61.076"
   version="1.1"
   id="svg63"
   sodipodi:docname="iv-ii-l.pdf"
   xmlns:inkscape="http://www.inkscape.org/namespaces/inkscape"
   xmlns:sodipodi="http://sodipodi.sourceforge.net/DTD/sodipodi-0.dtd"
   xmlns:xlink="http://www.w3.org/1999/xlink"
   xmlns="http://www.w3.org/2000/svg"
   xmlns:svg="http://www.w3.org/2000/svg">
  <sodipodi:namedview
     id="namedview65"
     pagecolor="#ffffff"
     bordercolor="#000000"
     borderopacity="0.25"
     inkscape:showpageshadow="2"
     inkscape:pageopacity="0.0"
     inkscape:pagecheckerboard="0"
     inkscape:deskcolor="#d1d1d1"
     inkscape:document-units="pt" />
  <defs
     id="defs19">
    <g
       id="g17">
      <g
         id="glyph-0-0">
        <path
           d="M 1.296875 -0.34375 C 1.296875 -0.5625 1.125 -0.703125 0.9375 -0.703125 C 0.734375 -0.703125 0.59375 -0.53125 0.59375 -0.359375 C 0.59375 -0.140625 0.765625 0 0.9375 0 C 1.15625 0 1.296875 -0.171875 1.296875 -0.34375 Z M 1.296875 -0.34375 "
           id="path2" />
      </g>
      <g
         id="glyph-1-0">
        <path
           d="M 1.25 -3.171875 C 1.25 -3.1875 1.265625 -3.25 1.265625 -3.25 C 1.265625 -3.28125 1.25 -3.3125 1.1875 -3.3125 L 0.71875 -3.28125 C 0.53125 -3.265625 0.5 -3.265625 0.5 -3.171875 C 0.5 -3.109375 0.5625 -3.109375 0.625 -3.109375 C 0.84375 -3.109375 0.84375 -3.078125 0.84375 -3.03125 C 0.84375 -3.015625 0.84375 -3.015625 0.828125 -2.921875 L 0.234375 -0.546875 C 0.21875 -0.484375 0.21875 -0.40625 0.21875 -0.40625 C 0.21875 -0.109375 0.453125 0.046875 0.703125 0.046875 C 0.90625 0.046875 1.015625 -0.109375 1.0625 -0.21875 C 1.15625 -0.375 1.21875 -0.65625 1.21875 -0.6875 C 1.21875 -0.71875 1.203125 -0.75 1.140625 -0.75 C 1.109375 -0.75 1.09375 -0.71875 1.09375 -0.71875 C 1.078125 -0.703125 1.0625 -0.609375 1.046875 -0.5625 C 0.96875 -0.28125 0.875 -0.09375 0.703125 -0.09375 C 0.59375 -0.09375 0.5625 -0.203125 0.5625 -0.3125 C 0.5625 -0.40625 0.578125 -0.453125 0.59375 -0.515625 Z M 1.25 -3.171875 "
           id="path5" />
      </g>
      <g
         id="glyph-2-0">
        <path
           d="M 3.34375 -1.078125 C 3.421875 -1.078125 3.53125 -1.078125 3.53125 -1.1875 C 3.53125 -1.3125 3.421875 -1.3125 3.34375 -1.3125 L 0.609375 -1.3125 C 0.53125 -1.3125 0.421875 -1.3125 0.421875 -1.1875 C 0.421875 -1.078125 0.53125 -1.078125 0.609375 -1.078125 Z M 3.34375 -1.078125 "
           id="path8" />
      </g>
      <g
         id="glyph-3-0">
        <path
           d="M 1.5 -3.046875 C 1.5 -3.171875 1.484375 -3.171875 1.359375 -3.171875 C 1.171875 -2.984375 0.90625 -2.875 0.453125 -2.875 L 0.453125 -2.71875 C 0.59375 -2.71875 0.84375 -2.71875 1.125 -2.84375 L 1.125 -0.390625 C 1.125 -0.21875 1.109375 -0.15625 0.65625 -0.15625 L 0.484375 -0.15625 L 0.484375 0 C 0.6875 -0.015625 1.09375 -0.015625 1.3125 -0.015625 C 1.53125 -0.015625 1.9375 -0.015625 2.140625 0 L 2.140625 -0.15625 L 1.96875 -0.15625 C 1.515625 -0.15625 1.5 -0.21875 1.5 -0.390625 Z M 1.5 -3.046875 "
           id="path11" />
      </g>
      <g
         id="glyph-4-0">
        <path
           d="M 1.34375 -0.625 C 1.28125 -0.328125 1.265625 -0.265625 0.671875 -0.265625 C 0.515625 -0.265625 0.421875 -0.265625 0.421875 -0.109375 C 0.421875 0 0.53125 0 0.65625 0 L 3.625 0 C 4.9375 0 5.90625 -0.9375 5.90625 -1.703125 C 5.90625 -2.28125 5.40625 -2.75 4.609375 -2.84375 C 5.53125 -3.015625 6.328125 -3.625 6.328125 -4.328125 C 6.328125 -4.921875 5.75 -5.4375 4.75 -5.4375 L 1.96875 -5.4375 C 1.828125 -5.4375 1.71875 -5.4375 1.71875 -5.296875 C 1.71875 -5.171875 1.8125 -5.171875 1.953125 -5.171875 C 2.21875 -5.171875 2.453125 -5.171875 2.453125 -5.046875 C 2.453125 -5.015625 2.4375 -5.015625 2.421875 -4.90625 Z M 2.59375 -2.9375 L 3.078125 -4.890625 C 3.140625 -5.15625 3.15625 -5.171875 3.484375 -5.171875 L 4.625 -5.171875 C 5.40625 -5.171875 5.59375 -4.671875 5.59375 -4.34375 C 5.59375 -3.671875 4.859375 -2.9375 3.84375 -2.9375 Z M 2.046875 -0.265625 C 1.96875 -0.28125 1.9375 -0.28125 1.9375 -0.328125 C 1.9375 -0.390625 1.953125 -0.46875 1.96875 -0.515625 L 2.53125 -2.71875 L 4.15625 -2.71875 C 4.890625 -2.71875 5.140625 -2.21875 5.140625 -1.765625 C 5.140625 -0.984375 4.375 -0.265625 3.421875 -0.265625 Z M 2.046875 -0.265625 "
           id="path14" />
      </g>
    </g>
  </defs>
  <path
     fill="none"
     stroke-width="0.3985"
     stroke-linecap="butt"
     stroke-linejoin="miter"
     stroke="rgb(0%, 0%, 0%)"
     stroke-opacity="1"
     stroke-miterlimit="10"
     d="M -42.521719 56.692594 L -42.521719 0.0011875 "
     transform="matrix(1, 0, 0, -1, 58.885, 58.884)"
     id="path21" />
  <path
     fill="none"
     stroke-width="0.3985"
     stroke-linecap="butt"
     stroke-linejoin="miter"
     stroke="rgb(0%, 0%, 0%)"
     stroke-opacity="1"
     stroke-miterlimit="10"
     d="M -56.693594 14.173063 L -21.26 49.606656 "
     transform="matrix(1, 0, 0, -1, 58.885, 58.884)"
     id="path23" />
  <path
     fill="none"
     stroke-width="0.3985"
     stroke-linecap="butt"
     stroke-linejoin="miter"
     stroke="rgb(0%, 0%, 0%)"
     stroke-opacity="1"
     stroke-miterlimit="10"
     d="M -56.693594 42.520719 L -21.26 7.087125 "
     transform="matrix(1, 0, 0, -1, 58.885, 58.884)"
     id="path25" />
  <path
     fill="none"
     stroke-width="0.3985"
     stroke-linecap="butt"
     stroke-linejoin="miter"
     stroke="rgb(0%, 0%, 0%)"
     stroke-opacity="1"
     stroke-miterlimit="10"
     d="M -28.345937 49.606656 L 3.544688 35.434781 "
     transform="matrix(1, 0, 0, -1, 58.885, 58.884)"
     id="path27" />
  <path
     fill="none"
     stroke-width="0.3985"
     stroke-linecap="butt"
     stroke-linejoin="miter"
     stroke="rgb(0%, 0%, 0%)"
     stroke-opacity="1"
     stroke-miterlimit="10"
     d="M -28.345937 7.087125 L 3.544688 21.259 "
     transform="matrix(1, 0, 0, -1, 58.885, 58.884)"
     id="path29" />
  <g
     fill="#000000"
     fill-opacity="1"
     id="g33">
    <use
       xlink:href="#glyph-0-0"
       x="60.778"
       y="28.432199"
       id="use31" />
  </g>
  <g
     fill="#000000"
     fill-opacity="1"
     id="g37">
    <use
       xlink:href="#glyph-0-0"
       x="60.778"
       y="31.620199"
       id="use35" />
  </g>
  <g
     fill="#000000"
     fill-opacity="1"
     id="g41">
    <use
       xlink:href="#glyph-0-0"
       x="60.778"
       y="34.808998"
       id="use39" />
  </g>
  <g
     fill="#000000"
     fill-opacity="1"
     id="g45">
    <use
       xlink:href="#glyph-1-0"
       x="70.302002"
       y="34.589001"
       id="use43" />
  </g>
  <g
     fill="#000000"
     fill-opacity="1"
     id="g49">
    <use
       xlink:href="#glyph-2-0"
       x="72.157204"
       y="34.589001"
       id="use47" />
  </g>
  <g
     fill="#000000"
     fill-opacity="1"
     id="g53">
    <use
       xlink:href="#glyph-3-0"
       x="76.391403"
       y="34.589001"
       id="use51" />
  </g>
  <g
     fill="#0000ff"
     fill-opacity="1"
     id="g57">
    <use
       xlink:href="#glyph-4-0"
       x="17.368999"
       y="14.404"
       id="use55" />
  </g>
  <g
     fill="#0000ff"
     fill-opacity="1"
     id="g61">
    <use
       xlink:href="#glyph-4-0"
       x="18.361"
       y="45.018002"
       id="use59" />
  </g>
</svg>
