<?xml version="1.0" encoding="UTF-8"?>
<svg xmlns="http://www.w3.org/2000/svg" xmlns:xlink="http://www.w3.org/1999/xlink" width="90pt" height="29pt" viewBox="0 0 90 29">
<defs>
<g>
<g id="glyph-0-0">
<path d="M 1.1875 -2.78125 C 1.1875 -2.78125 1.203125 -2.84375 1.203125 -2.84375 C 1.203125 -2.875 1.1875 -2.90625 1.125 -2.90625 C 1.046875 -2.90625 0.703125 -2.875 0.59375 -2.859375 C 0.5625 -2.859375 0.5 -2.859375 0.5 -2.765625 C 0.5 -2.703125 0.5625 -2.703125 0.609375 -2.703125 C 0.8125 -2.703125 0.8125 -2.6875 0.8125 -2.640625 C 0.8125 -2.625 0.796875 -2.59375 0.796875 -2.546875 L 0.28125 -0.484375 C 0.265625 -0.4375 0.265625 -0.390625 0.265625 -0.359375 C 0.265625 -0.09375 0.5 0.046875 0.703125 0.046875 C 0.796875 0.046875 0.921875 0.015625 1.03125 -0.1875 C 1.125 -0.328125 1.1875 -0.578125 1.1875 -0.59375 C 1.1875 -0.65625 1.125 -0.65625 1.109375 -0.65625 C 1.0625 -0.65625 1.046875 -0.625 1.03125 -0.546875 C 0.96875 -0.34375 0.890625 -0.078125 0.71875 -0.078125 C 0.609375 -0.078125 0.578125 -0.1875 0.578125 -0.28125 C 0.578125 -0.328125 0.59375 -0.40625 0.59375 -0.453125 Z M 1.1875 -2.78125 "/>
</g>
<g id="glyph-1-0">
<path d="M 2.109375 -0.765625 L 1.96875 -0.765625 C 1.953125 -0.671875 1.921875 -0.421875 1.859375 -0.375 C 1.828125 -0.359375 1.5 -0.359375 1.453125 -0.359375 L 0.671875 -0.359375 C 1.125 -0.75 1.265625 -0.859375 1.515625 -1.0625 C 1.828125 -1.3125 2.109375 -1.5625 2.109375 -1.96875 C 2.109375 -2.46875 1.671875 -2.78125 1.140625 -2.78125 C 0.609375 -2.78125 0.265625 -2.421875 0.265625 -2.03125 C 0.265625 -1.8125 0.4375 -1.796875 0.484375 -1.796875 C 0.59375 -1.796875 0.703125 -1.875 0.703125 -2.015625 C 0.703125 -2.09375 0.671875 -2.234375 0.453125 -2.234375 C 0.59375 -2.53125 0.875 -2.625 1.078125 -2.625 C 1.484375 -2.625 1.703125 -2.296875 1.703125 -1.96875 C 1.703125 -1.59375 1.453125 -1.3125 1.3125 -1.15625 L 0.3125 -0.15625 C 0.265625 -0.125 0.265625 -0.125 0.265625 0 L 1.984375 0 Z M 2.109375 -0.765625 "/>
</g>
<g id="glyph-2-0">
<path d="M 0.765625 -0.453125 L 1.390625 -1.078125 C 2.328125 -1.90625 2.6875 -2.21875 2.6875 -2.828125 C 2.6875 -3.5 2.140625 -3.984375 1.421875 -3.984375 C 0.734375 -3.984375 0.296875 -3.4375 0.296875 -2.90625 C 0.296875 -2.5625 0.59375 -2.5625 0.609375 -2.5625 C 0.71875 -2.5625 0.921875 -2.640625 0.921875 -2.890625 C 0.921875 -3.046875 0.8125 -3.203125 0.609375 -3.203125 C 0.5625 -3.203125 0.546875 -3.203125 0.53125 -3.1875 C 0.671875 -3.578125 1 -3.796875 1.34375 -3.796875 C 1.890625 -3.796875 2.140625 -3.3125 2.140625 -2.828125 C 2.140625 -2.34375 1.84375 -1.875 1.515625 -1.5 L 0.359375 -0.21875 C 0.296875 -0.15625 0.296875 -0.140625 0.296875 0 L 2.515625 0 L 2.6875 -1.046875 L 2.53125 -1.046875 C 2.5 -0.859375 2.46875 -0.59375 2.40625 -0.515625 C 2.359375 -0.453125 1.96875 -0.453125 1.84375 -0.453125 Z M 0.765625 -0.453125 "/>
</g>
<g id="glyph-2-1">
<path d="M 2.453125 -1.375 L 4.125 -1.375 C 4.203125 -1.375 4.3125 -1.375 4.3125 -1.5 C 4.3125 -1.609375 4.203125 -1.609375 4.125 -1.609375 L 2.453125 -1.609375 L 2.453125 -3.296875 C 2.453125 -3.375 2.453125 -3.484375 2.328125 -3.484375 C 2.203125 -3.484375 2.203125 -3.375 2.203125 -3.296875 L 2.203125 -1.609375 L 0.53125 -1.609375 C 0.453125 -1.609375 0.328125 -1.609375 0.328125 -1.5 C 0.328125 -1.375 0.453125 -1.375 0.53125 -1.375 L 2.203125 -1.375 L 2.203125 0.296875 C 2.203125 0.390625 2.203125 0.5 2.328125 0.5 C 2.453125 0.5 2.453125 0.390625 2.453125 0.296875 Z M 2.453125 -1.375 "/>
</g>
<g id="glyph-2-2">
<path d="M 1.765625 -3.828125 C 1.765625 -3.96875 1.765625 -3.984375 1.625 -3.984375 C 1.25 -3.609375 0.71875 -3.609375 0.53125 -3.609375 L 0.53125 -3.421875 C 0.65625 -3.421875 1 -3.421875 1.3125 -3.578125 L 1.3125 -0.46875 C 1.3125 -0.25 1.296875 -0.1875 0.765625 -0.1875 L 0.5625 -0.1875 L 0.5625 0 C 0.78125 -0.015625 1.296875 -0.015625 1.53125 -0.015625 C 1.78125 -0.015625 2.296875 -0.015625 2.5 0 L 2.5 -0.1875 L 2.3125 -0.1875 C 1.78125 -0.1875 1.765625 -0.25 1.765625 -0.46875 Z M 1.765625 -3.828125 "/>
</g>
<g id="glyph-2-3">
<path d="M 2.75 -1.921875 C 2.75 -2.390625 2.71875 -2.875 2.515625 -3.3125 C 2.234375 -3.890625 1.75 -3.984375 1.5 -3.984375 C 1.140625 -3.984375 0.703125 -3.828125 0.453125 -3.265625 C 0.265625 -2.859375 0.234375 -2.390625 0.234375 -1.921875 C 0.234375 -1.46875 0.25 -0.921875 0.5 -0.46875 C 0.765625 0.015625 1.203125 0.125 1.484375 0.125 C 1.8125 0.125 2.265625 0 2.53125 -0.5625 C 2.71875 -0.96875 2.75 -1.4375 2.75 -1.921875 Z M 1.484375 0 C 1.25 0 0.90625 -0.15625 0.796875 -0.71875 C 0.734375 -1.078125 0.734375 -1.640625 0.734375 -1.984375 C 0.734375 -2.375 0.734375 -2.765625 0.78125 -3.09375 C 0.890625 -3.796875 1.34375 -3.859375 1.484375 -3.859375 C 1.6875 -3.859375 2.078125 -3.75 2.203125 -3.15625 C 2.25 -2.8125 2.25 -2.359375 2.25 -1.984375 C 2.25 -1.53125 2.25 -1.125 2.1875 -0.75 C 2.09375 -0.171875 1.765625 0 1.484375 0 Z M 1.484375 0 "/>
</g>
<g id="glyph-3-0">
<path d="M 1.234375 -2.390625 L 1.796875 -2.390625 C 1.921875 -2.390625 1.96875 -2.390625 1.96875 -2.515625 C 1.96875 -2.578125 1.921875 -2.578125 1.8125 -2.578125 L 1.28125 -2.578125 C 1.5 -3.421875 1.53125 -3.546875 1.53125 -3.578125 C 1.53125 -3.6875 1.453125 -3.75 1.359375 -3.75 C 1.328125 -3.75 1.171875 -3.734375 1.109375 -3.53125 L 0.875 -2.578125 L 0.3125 -2.578125 C 0.203125 -2.578125 0.140625 -2.578125 0.140625 -2.46875 C 0.140625 -2.390625 0.1875 -2.390625 0.3125 -2.390625 L 0.828125 -2.390625 C 0.40625 -0.6875 0.375 -0.59375 0.375 -0.484375 C 0.375 -0.15625 0.609375 0.0625 0.921875 0.0625 C 1.53125 0.0625 1.875 -0.8125 1.875 -0.859375 C 1.875 -0.921875 1.828125 -0.921875 1.8125 -0.921875 C 1.75 -0.921875 1.75 -0.890625 1.71875 -0.828125 C 1.453125 -0.203125 1.140625 -0.0625 0.9375 -0.0625 C 0.8125 -0.0625 0.75 -0.140625 0.75 -0.34375 C 0.75 -0.484375 0.765625 -0.53125 0.796875 -0.625 Z M 1.234375 -2.390625 "/>
</g>
</g>
<clipPath id="clip-0">
<path clip-rule="nonzero" d="M 5 10 L 12 10 L 12 17 L 5 17 Z M 5 10 "/>
</clipPath>
<clipPath id="clip-1">
<path clip-rule="nonzero" d="M 11.722656 13.351562 C 11.722656 11.601562 10.304688 10.179688 8.550781 10.179688 C 6.800781 10.179688 5.382812 11.601562 5.382812 13.351562 C 5.382812 15.101562 6.800781 16.519531 8.550781 16.519531 C 10.304688 16.519531 11.722656 15.101562 11.722656 13.351562 Z M 11.722656 13.351562 "/>
</clipPath>
<radialGradient id="radial-pattern-0" gradientUnits="userSpaceOnUse" cx="6.339831" cy="6.339831" fx="5.071866" fy="7.607796" r="6.339831" gradientTransform="matrix(1, 0, 0, -1, 2.212355, 19.69125)">
<stop offset="0" stop-color="rgb(98.120117%, 85.443115%, 90.138245%)" stop-opacity="1"/>
<stop offset="0.179688" stop-color="rgb(90.711975%, 30.044556%, 52.513123%)" stop-opacity="1"/>
<stop offset="0.359375" stop-color="rgb(61.444092%, 4.927063%, 25.85907%)" stop-opacity="1"/>
<stop offset="0.5" stop-color="rgb(43.826294%, 3.485107%, 18.426514%)" stop-opacity="1"/>
<stop offset="1" stop-color="rgb(0%, 0%, 0%)" stop-opacity="1"/>
</radialGradient>
<clipPath id="clip-2">
<path clip-rule="nonzero" d="M 13 10 L 20 10 L 20 17 L 13 17 Z M 13 10 "/>
</clipPath>
<clipPath id="clip-3">
<path clip-rule="nonzero" d="M 19.605469 13.351562 C 19.605469 11.601562 18.1875 10.179688 16.4375 10.179688 C 14.6875 10.179688 13.265625 11.601562 13.265625 13.351562 C 13.265625 15.101562 14.6875 16.519531 16.4375 16.519531 C 18.1875 16.519531 19.605469 15.101562 19.605469 13.351562 Z M 19.605469 13.351562 "/>
</clipPath>
<radialGradient id="radial-pattern-1" gradientUnits="userSpaceOnUse" cx="6.339831" cy="6.339831" fx="5.071866" fy="7.607796" r="6.339831" gradientTransform="matrix(1, 0, 0, -1, 10.09685, 19.69125)">
<stop offset="0" stop-color="rgb(98.120117%, 85.443115%, 90.138245%)" stop-opacity="1"/>
<stop offset="0.179688" stop-color="rgb(90.711975%, 30.044556%, 52.513123%)" stop-opacity="1"/>
<stop offset="0.359375" stop-color="rgb(61.444092%, 4.927063%, 25.85907%)" stop-opacity="1"/>
<stop offset="0.5" stop-color="rgb(43.826294%, 3.485107%, 18.426514%)" stop-opacity="1"/>
<stop offset="1" stop-color="rgb(0%, 0%, 0%)" stop-opacity="1"/>
</radialGradient>
<clipPath id="clip-4">
<path clip-rule="nonzero" d="M 21 10 L 28 10 L 28 17 L 21 17 Z M 21 10 "/>
</clipPath>
<clipPath id="clip-5">
<path clip-rule="nonzero" d="M 27.492188 13.351562 C 27.492188 11.601562 26.070312 10.179688 24.320312 10.179688 C 22.570312 10.179688 21.152344 11.601562 21.152344 13.351562 C 21.152344 15.101562 22.570312 16.519531 24.320312 16.519531 C 26.070312 16.519531 27.492188 15.101562 27.492188 13.351562 Z M 27.492188 13.351562 "/>
</clipPath>
<radialGradient id="radial-pattern-2" gradientUnits="userSpaceOnUse" cx="6.339831" cy="6.339831" fx="5.071866" fy="7.607796" r="6.339831" gradientTransform="matrix(1, 0, 0, -1, 17.98133, 19.69125)">
<stop offset="0" stop-color="rgb(98.120117%, 85.443115%, 90.138245%)" stop-opacity="1"/>
<stop offset="0.179688" stop-color="rgb(90.711975%, 30.044556%, 52.513123%)" stop-opacity="1"/>
<stop offset="0.359375" stop-color="rgb(61.444092%, 4.927063%, 25.85907%)" stop-opacity="1"/>
<stop offset="0.5" stop-color="rgb(43.826294%, 3.485107%, 18.426514%)" stop-opacity="1"/>
<stop offset="1" stop-color="rgb(0%, 0%, 0%)" stop-opacity="1"/>
</radialGradient>
<clipPath id="clip-6">
<path clip-rule="nonzero" d="M 31 10 L 38 10 L 38 17 L 31 17 Z M 31 10 "/>
</clipPath>
<clipPath id="clip-7">
<path clip-rule="nonzero" d="M 37.925781 13.351562 C 37.925781 11.601562 36.507812 10.179688 34.757812 10.179688 C 33.007812 10.179688 31.585938 11.601562 31.585938 13.351562 C 31.585938 15.101562 33.007812 16.519531 34.757812 16.519531 C 36.507812 16.519531 37.925781 15.101562 37.925781 13.351562 Z M 37.925781 13.351562 "/>
</clipPath>
<radialGradient id="radial-pattern-3" gradientUnits="userSpaceOnUse" cx="6.339831" cy="6.339831" fx="5.071866" fy="7.607796" r="6.339831" gradientTransform="matrix(1, 0, 0, -1, 28.41695, 19.69125)">
<stop offset="0" stop-color="rgb(98.120117%, 85.443115%, 90.138245%)" stop-opacity="1"/>
<stop offset="0.179688" stop-color="rgb(90.711975%, 30.044556%, 52.513123%)" stop-opacity="1"/>
<stop offset="0.359375" stop-color="rgb(61.444092%, 4.927063%, 25.85907%)" stop-opacity="1"/>
<stop offset="0.5" stop-color="rgb(43.826294%, 3.485107%, 18.426514%)" stop-opacity="1"/>
<stop offset="1" stop-color="rgb(0%, 0%, 0%)" stop-opacity="1"/>
</radialGradient>
<clipPath id="clip-8">
<path clip-rule="nonzero" d="M 42 10 L 49 10 L 49 17 L 42 17 Z M 42 10 "/>
</clipPath>
<clipPath id="clip-9">
<path clip-rule="nonzero" d="M 48.363281 13.351562 C 48.363281 11.601562 46.941406 10.179688 45.191406 10.179688 C 43.441406 10.179688 42.023438 11.601562 42.023438 13.351562 C 42.023438 15.101562 43.441406 16.519531 45.191406 16.519531 C 46.941406 16.519531 48.363281 15.101562 48.363281 13.351562 Z M 48.363281 13.351562 "/>
</clipPath>
<radialGradient id="radial-pattern-4" gradientUnits="userSpaceOnUse" cx="6.339831" cy="6.339831" fx="5.071866" fy="7.607796" r="6.339831" gradientTransform="matrix(1, 0, 0, -1, 38.85254, 19.69125)">
<stop offset="0" stop-color="rgb(98.120117%, 85.443115%, 90.138245%)" stop-opacity="1"/>
<stop offset="0.179688" stop-color="rgb(90.711975%, 30.044556%, 52.513123%)" stop-opacity="1"/>
<stop offset="0.359375" stop-color="rgb(61.444092%, 4.927063%, 25.85907%)" stop-opacity="1"/>
<stop offset="0.5" stop-color="rgb(43.826294%, 3.485107%, 18.426514%)" stop-opacity="1"/>
<stop offset="1" stop-color="rgb(0%, 0%, 0%)" stop-opacity="1"/>
</radialGradient>
<clipPath id="clip-10">
<path clip-rule="nonzero" d="M 49 10 L 57 10 L 57 17 L 49 17 Z M 49 10 "/>
</clipPath>
<clipPath id="clip-11">
<path clip-rule="nonzero" d="M 56.246094 13.351562 C 56.246094 11.601562 54.828125 10.179688 53.078125 10.179688 C 51.324219 10.179688 49.90625 11.601562 49.90625 13.351562 C 49.90625 15.101562 51.324219 16.519531 53.078125 16.519531 C 54.828125 16.519531 56.246094 15.101562 56.246094 13.351562 Z M 56.246094 13.351562 "/>
</clipPath>
<radialGradient id="radial-pattern-5" gradientUnits="userSpaceOnUse" cx="6.339831" cy="6.339831" fx="5.071866" fy="7.607796" r="6.339831" gradientTransform="matrix(1, 0, 0, -1, 46.73702, 19.69125)">
<stop offset="0" stop-color="rgb(98.120117%, 85.443115%, 90.138245%)" stop-opacity="1"/>
<stop offset="0.179688" stop-color="rgb(90.711975%, 30.044556%, 52.513123%)" stop-opacity="1"/>
<stop offset="0.359375" stop-color="rgb(61.444092%, 4.927063%, 25.85907%)" stop-opacity="1"/>
<stop offset="0.5" stop-color="rgb(43.826294%, 3.485107%, 18.426514%)" stop-opacity="1"/>
<stop offset="1" stop-color="rgb(0%, 0%, 0%)" stop-opacity="1"/>
</radialGradient>
</defs>
<g clip-path="url(#clip-0)">
<g clip-path="url(#clip-1)">
<rect x="0" y="0" width="90" height="29" fill="url(#radial-pattern-0)"/>
</g>
</g>
<g clip-path="url(#clip-2)">
<g clip-path="url(#clip-3)">
<rect x="0" y="0" width="90" height="29" fill="url(#radial-pattern-1)"/>
</g>
</g>
<g clip-path="url(#clip-4)">
<g clip-path="url(#clip-5)">
<rect x="0" y="0" width="90" height="29" fill="url(#radial-pattern-2)"/>
</g>
</g>
<g clip-path="url(#clip-6)">
<g clip-path="url(#clip-7)">
<rect x="0" y="0" width="90" height="29" fill="url(#radial-pattern-3)"/>
</g>
</g>
<g clip-path="url(#clip-8)">
<g clip-path="url(#clip-9)">
<rect x="0" y="0" width="90" height="29" fill="url(#radial-pattern-4)"/>
</g>
</g>
<g clip-path="url(#clip-10)">
<g clip-path="url(#clip-11)">
<rect x="0" y="0" width="90" height="29" fill="url(#radial-pattern-5)"/>
</g>
</g>
<path fill="none" stroke-width="0.79701" stroke-linecap="butt" stroke-linejoin="miter" stroke="rgb(9.999084%, 9.999084%, 9.999084%)" stroke-opacity="1" stroke-miterlimit="10" d="M 33.969333 3.518188 L 29.649021 3.518188 C 27.445896 3.518188 25.662042 1.734333 25.662042 -0.466187 L 25.662042 0.466104 C 25.662042 -1.734417 27.445896 -3.518271 29.649021 -3.518271 L 33.969333 -3.518271 C 36.169854 -3.518271 37.956312 -1.734417 37.956312 0.466104 L 37.956312 -0.466187 C 37.956312 1.734333 36.169854 3.518188 33.969333 3.518188 Z M 33.969333 3.518188 " transform="matrix(1.5, 0, 0, -1.5, 1.421, 13.3515)"/>
<g fill="rgb(0%, 0%, 0%)" fill-opacity="1">
<use xlink:href="#glyph-0-0" x="60.2597" y="16.6677"/>
</g>
<path fill="none" stroke-width="0.398" stroke-linecap="butt" stroke-linejoin="miter" stroke="rgb(0%, 0%, 0%)" stroke-opacity="1" stroke-miterlimit="10" d="M -0.000270833 -0.000739583 L 3.971083 -0.000739583 " transform="matrix(0.6, 0, 0, -0.6, 59.8361, 17.5269)"/>
<g fill="rgb(0%, 0%, 0%)" fill-opacity="1">
<use xlink:href="#glyph-1-0" x="59.8361" y="21.0825"/>
</g>
<path fill="none" stroke-width="0.79701" stroke-linecap="butt" stroke-linejoin="miter" stroke="rgb(9.999084%, 9.999084%, 9.999084%)" stroke-opacity="1" stroke-miterlimit="10" d="M 38.740167 5.231729 L 22.690687 5.231729 C 20.490167 5.231729 18.706312 3.447875 18.706312 1.247354 L 18.706312 -2.484417 C 18.706312 -4.684937 20.490167 -6.468792 22.690687 -6.468792 L 38.740167 -6.468792 C 40.940687 -6.468792 42.724542 -4.684937 42.724542 -2.484417 L 42.724542 1.247354 C 42.724542 3.447875 40.940687 5.231729 38.740167 5.231729 Z M 38.740167 5.231729 " transform="matrix(1.5, 0, 0, -1.5, 1.421, 13.3515)"/>
<g fill="rgb(0%, 0%, 0%)" fill-opacity="1">
<use xlink:href="#glyph-2-0" x="66.2735" y="23.526"/>
</g>
<g fill="rgb(0%, 0%, 0%)" fill-opacity="1">
<use xlink:href="#glyph-3-0" x="69.2621" y="23.526"/>
</g>
<g fill="rgb(0%, 0%, 0%)" fill-opacity="1">
<use xlink:href="#glyph-2-1" x="72.7493" y="23.526"/>
</g>
<g fill="rgb(0%, 0%, 0%)" fill-opacity="1">
<use xlink:href="#glyph-2-2" x="78.725664" y="23.526"/>
</g>
<path fill="none" stroke-width="0.79701" stroke-linecap="butt" stroke-linejoin="miter" stroke="rgb(9.999084%, 9.999084%, 9.999084%)" stroke-opacity="1" stroke-miterlimit="10" d="M 51.258396 6.945271 L 5.221938 6.945271 C 3.021417 6.945271 1.234958 5.161417 1.234958 2.960896 L 1.234958 -4.445354 C 1.234958 -6.645875 3.021417 -8.429729 5.221938 -8.429729 L 51.258396 -8.429729 C 53.458917 -8.429729 55.242771 -6.645875 55.242771 -4.445354 L 55.242771 2.960896 C 55.242771 5.161417 53.458917 6.945271 51.258396 6.945271 Z M 51.258396 6.945271 " transform="matrix(1.5, 0, 0, -1.5, 1.421, 13.3515)"/>
<g fill="rgb(0%, 0%, 0%)" fill-opacity="1">
<use xlink:href="#glyph-2-2" x="85.052" y="6.066"/>
</g>
<g fill="rgb(0%, 0%, 0%)" fill-opacity="1">
<use xlink:href="#glyph-2-3" x="85.052" y="26.7165"/>
</g>
</svg>
